<svg width="37" height="35" viewBox="0 0 37 35" fill="none" xmlns="http://www.w3.org/2000/svg">
<path d="M19.5479 4.28164C18.6713 5.68092 19.9271 9.69073 21.7001 11.1682C23.0602 12.2732 24.0665 11.7665 24.3315 9.82652C24.6359 7.7818 23.1377 4.87918 21.4323 4.14963C20.1328 3.57942 19.9764 3.60818 19.5479 4.28164Z" fill="black"/>
<path d="M7.84038 5.2123C6.96374 6.61158 8.21957 10.6214 9.99262 12.0989C11.3527 13.2039 12.359 12.6972 12.624 10.7572C12.9284 8.71246 11.4302 5.80984 9.72476 5.08029C8.42528 4.51008 8.26883 4.53885 7.84038 5.2123Z" fill="black"/>
<path d="M2.88193 16.586C3.24136 18.8012 7.35405 22.8803 11.0101 24.6161C12.1376 25.1789 14.0826 25.5817 15.8021 25.6555C18.5025 25.7536 18.8859 25.6636 22.3741 24.0571C25.7215 22.5155 26.2387 22.1474 27.844 20.2827C29.889 17.8692 31.8424 12.6844 31.2223 11.2386C30.6796 9.97356 29.8918 10.5961 28.3133 13.7037C26.5656 17.1057 25.5918 18.3766 23.558 19.8327C21.6144 21.2039 17.9796 22.272 15.6935 22.1561C12.9776 22.0218 7.87127 19.2659 5.0947 16.4326C3.68105 15.006 2.64514 15.0503 2.88193 16.586Z" fill="black"/>
</svg>
