<svg width="205" height="220" viewBox="0 0 205 220" fill="none" xmlns="http://www.w3.org/2000/svg">
<g filter="url(#filter0_d_219_14)">
<rect width="143.482" height="149.353" transform="translate(122.359) rotate(55.0113)" fill="#F3ABCB"/>
<g filter="url(#filter1_d_219_14)">
<path d="M155.926 50.9549C153.862 51.5841 153.902 51.5567 136.474 67.0162C129.414 73.239 123.44 78.3518 123.241 78.3166C123.042 78.2814 122.565 74.1886 122.241 69.2318C121.577 59.7952 120.643 54.2169 119.533 52.5477C118.219 50.6712 116.601 50.5226 114.451 52.0275C112.184 53.6144 110.761 55.6588 104.028 67.0104C98.5083 76.3489 97.0814 78.2213 95.725 77.9476C93.9698 77.6035 90.9717 74.9842 76.2509 60.9419C68.2416 53.3265 60.889 46.6494 59.8844 46.1294C56.6126 44.2842 54.8573 46.8523 56.1196 51.7349C56.4948 53.1031 59.0549 59.7565 61.8026 66.5115C69.4399 85.1622 73.2857 97.1477 71.9175 98.1053C71.6047 98.3242 68.9661 98.1325 65.9913 97.7102C55.3001 96.1655 48.2833 95.5435 47.0363 96.0086C46.0785 96.3878 45.7697 96.7787 45.6875 97.8263C45.5936 98.9404 45.8125 99.2531 47.3096 100.477C48.2791 101.196 53.99 104.363 59.9903 107.443C65.9906 110.524 71.299 113.448 71.7993 113.914C73.312 115.243 73.0149 116.15 70.6224 118.057C69.4262 119.011 63.2339 123.811 56.8462 128.748C41.9128 140.365 39.8174 142.53 41.377 144.759C43.1829 147.339 48.5775 146.475 70.0348 140.018C79.1861 137.283 87.0787 135.078 87.5439 135.16C88.2475 135.25 88.2866 135.806 87.7665 137.975C86.398 143.592 83.8836 158.224 84.0477 159.623C84.4658 162.884 86.4907 163.447 89.1099 161.031C89.8996 160.245 93.9966 155.281 98.2696 149.902C102.503 144.551 106.057 140.142 106.19 140.165C106.323 140.189 107.405 142.984 108.566 146.306C111.408 154.277 116.731 166.626 119.194 170.727C120.957 173.745 121.242 174.07 122.45 174.214C125.237 174.535 125.577 173.19 128.494 152.394C129.554 144.838 130.696 138.564 130.985 138.478C131.275 138.392 134.253 139.569 137.545 141.109C145.812 144.933 151.187 146.704 153.415 146.309C155.182 146.004 155.26 145.95 155.495 144.62C155.863 142.732 152.951 137.49 148.272 131.388C146.267 128.772 144.625 126.427 144.699 126.2C144.707 125.962 148.342 126.329 152.701 127.065C165.362 129.094 176.839 130.264 180.416 129.799C183.215 129.47 184.353 127.684 183.012 125.769C182.438 124.948 173.189 119.889 159.996 113.106C154.719 110.392 150.404 108.055 150.372 107.843C150.341 107.632 154.418 104.72 159.387 101.417C169.688 94.499 171.267 92.9276 170.204 90.9925C169.43 89.554 168.809 89.5813 156.941 91.0152C146.71 92.2929 142.919 92.6172 142.618 92.1871C142.508 92.0308 143.134 90.4281 144.017 88.5283C144.889 86.695 146.859 82.5202 148.427 79.2679C153.279 69.0577 157.826 58.2454 158.502 55.384C159.038 53.32 159.003 52.3545 158.428 51.5335C157.772 50.5953 157.373 50.5249 155.926 50.9549ZM154.726 58.1436C152.736 63.2058 146.508 76.9419 142.95 84.0914C139.948 90.037 139.033 92.8906 139.826 94.0242C140.757 95.3534 145.377 95.381 154.892 94.0798C160.185 93.4039 165.017 92.8178 165.626 92.8569C166.58 92.8882 166.596 92.9938 165.4 93.9475C164.684 94.5065 160.138 97.7469 155.318 101.179L146.522 107.335L147.143 108.473C147.612 109.309 152.119 111.921 163.44 117.859C172.067 122.363 179.263 126.237 179.427 126.472C179.592 126.706 179.611 126.984 179.455 127.093C178.712 127.613 160.848 125.556 151.638 123.965C146.056 122.979 141.302 122.346 140.99 122.565C139.66 123.495 140.118 124.398 146.685 133.78C150.269 138.901 153.095 143.272 152.981 143.526C152.544 144.648 146.633 142.611 137.478 138.185C131.99 135.503 130.063 135.163 128.722 136.742C128.128 137.391 127.053 143.094 125.418 153.907C124.124 162.792 122.888 170.18 122.692 170.317C121.793 170.946 119.077 164.985 113.296 149.985C107.726 135.537 107.644 135.42 105.064 137.225C104.361 137.718 101.64 140.904 99.0556 144.285C92.5387 152.865 87.394 158.912 87.0656 158.443C86.6552 157.857 87.7619 151.199 89.6778 142.869C91.6797 134.246 91.7189 133.054 90.3664 132.37C88.8536 131.623 86.3244 132.17 72.5212 136.414C53.7221 142.175 45.0985 144.251 44.305 143.117C43.7851 142.374 47.0455 139.626 63.0226 127.337C70.0358 121.962 74.856 117.948 75.2899 117.237C77.0492 114.258 74.3247 111.447 65.2324 106.861C55.4835 101.92 50.8592 99.3902 50.9295 98.9915C50.9726 98.5537 53.4001 98.7766 63.0555 100.173C71.4482 101.346 73.7897 101.28 74.5247 99.8333C76.1706 96.5263 73.4895 87.4532 63.7104 63.0795C59.8253 53.4512 58.5903 49.7726 59.0985 49.4169C59.5285 49.116 59.6106 49.2332 74.304 63.2364C88.7278 77.0207 91.1864 79.2021 93.7859 80.5861C97.6714 82.6425 99.2273 81.204 107.019 68.1208C112.985 58.0044 115.33 54.6153 116.437 54.3652C117.66 54.033 118.371 57.9617 119.242 70.1073C119.988 80.826 120.368 82.9487 121.411 82.8588C121.65 82.8667 122.69 82.0224 123.726 81.0061C127.314 77.5624 153.784 55.1335 155.469 54.129C156.345 53.6326 156.262 54.0978 154.726 58.1436Z" fill="black"/>
</g>
<g filter="url(#filter2_d_219_14)">
<path d="M128.819 93.6913C123.378 88.9962 113.985 85.7277 106.577 85.9618C102.848 86.1258 97.2969 87.6813 93.5832 89.6981C83.1065 95.2836 81.2332 109.583 89.7037 119.438C98.3226 129.423 114.873 133.68 124.936 128.502C133.008 124.308 137.86 115.262 136.527 106.701C136.062 103.707 135.672 102.816 133.463 99.4106C131.845 96.9322 130.156 94.8524 128.819 93.6913ZM133.334 107.131C133.861 110.548 132.954 115.493 131.136 118.803C129.748 121.231 129.244 121.759 125.53 124.358C121.777 126.985 121.148 127.25 118.286 127.739C114.659 128.298 107.951 127.285 103.342 125.443C87.1784 118.992 81.9647 101.558 93.6924 93.3492C98.7744 89.7923 107.292 87.7327 112.742 88.6946C115.627 89.2381 122.925 92.9248 125.891 95.333C129.062 97.9484 132.837 103.926 133.334 107.131Z" fill="black"/>
</g>
<path d="M119.533 108.053C118.74 107.502 117.102 108.823 117.219 109.906C117.45 111.899 120.217 111.942 120.569 109.949C120.722 109.085 120.46 108.627 119.533 108.053Z" fill="black"/>
<path d="M105.059 99.6046C103.663 99.9407 103.092 101.039 103.714 102.177C104.406 103.498 106.161 103.26 106.552 101.821C106.857 100.676 105.954 99.3857 105.059 99.6046Z" fill="black"/>
<path d="M107.615 115.987C105.16 118.055 104.558 118.36 103.339 118.282C102.119 118.204 101.849 117.985 101.56 116.906C101.294 115.694 101.767 113.208 102.663 111.241C103.003 110.479 102.921 110.362 102.178 110.299C100.865 110.17 99.1287 113.598 99.2615 115.952C99.4684 119.826 102.514 121.597 106.063 119.928C107.752 119.095 110.352 116.402 110.758 115.069C111.212 113.47 110.344 113.728 107.615 115.987Z" fill="black"/>
</g>
<defs>
<filter id="filter0_d_219_14" x="0" y="0" width="204.634" height="219.191" filterUnits="userSpaceOnUse" color-interpolation-filters="sRGB">
<feFlood flood-opacity="0" result="BackgroundImageFix"/>
<feColorMatrix in="SourceAlpha" type="matrix" values="0 0 0 0 0 0 0 0 0 0 0 0 0 0 0 0 0 0 127 0" result="hardAlpha"/>
<feOffset dy="16"/>
<feComposite in2="hardAlpha" operator="out"/>
<feColorMatrix type="matrix" values="0 0 0 0 0 0 0 0 0 0 0 0 0 0 0 0 0 0 0.25 0"/>
<feBlend mode="normal" in2="BackgroundImageFix" result="effect1_dropShadow_219_14"/>
<feBlend mode="normal" in="SourceGraphic" in2="effect1_dropShadow_219_14" result="shape"/>
</filter>
<filter id="filter1_d_219_14" x="40.9432" y="45.53" width="142.63" height="132.721" filterUnits="userSpaceOnUse" color-interpolation-filters="sRGB">
<feFlood flood-opacity="0" result="BackgroundImageFix"/>
<feColorMatrix in="SourceAlpha" type="matrix" values="0 0 0 0 0 0 0 0 0 0 0 0 0 0 0 0 0 0 127 0" result="hardAlpha"/>
<feOffset dy="4"/>
<feComposite in2="hardAlpha" operator="out"/>
<feColorMatrix type="matrix" values="0 0 0 0 0 0 0 0 0 0 0 0 0 0 0 0 0 0 0.25 0"/>
<feBlend mode="normal" in2="BackgroundImageFix" result="effect1_dropShadow_219_14"/>
<feBlend mode="normal" in="SourceGraphic" in2="effect1_dropShadow_219_14" result="shape"/>
</filter>
<filter id="filter2_d_219_14" x="84.3752" y="85.95" width="52.3713" height="48.7668" filterUnits="userSpaceOnUse" color-interpolation-filters="sRGB">
<feFlood flood-opacity="0" result="BackgroundImageFix"/>
<feColorMatrix in="SourceAlpha" type="matrix" values="0 0 0 0 0 0 0 0 0 0 0 0 0 0 0 0 0 0 127 0" result="hardAlpha"/>
<feOffset dy="4"/>
<feComposite in2="hardAlpha" operator="out"/>
<feColorMatrix type="matrix" values="0 0 0 0 0 0 0 0 0 0 0 0 0 0 0 0 0 0 0.25 0"/>
<feBlend mode="normal" in2="BackgroundImageFix" result="effect1_dropShadow_219_14"/>
<feBlend mode="normal" in="SourceGraphic" in2="effect1_dropShadow_219_14" result="shape"/>
</filter>
</defs>
</svg>
