<svg width="77" height="90" viewBox="0 0 77 90" fill="none" xmlns="http://www.w3.org/2000/svg">
<path d="M60.2829 13.9774C59.6951 13.0773 54.441 12.321 48.4199 12.1446C39.0556 11.8997 37.4742 12.2608 36.9195 14.1637C35.3329 18.9329 37.5337 20.0043 48.4794 19.888C60.3489 19.5833 63.339 18.2035 60.2829 13.9774Z" fill="black"/>
<path d="M42.801 42.7226C31.2634 35.127 27.7237 34.0017 27.9768 38.2609C28.0797 39.9911 32.02 43.3633 39.8057 48.5105C46.3382 52.7972 52.0167 56.1996 52.6822 56.1601C53.2146 56.1284 53.66 54.6327 53.5572 52.9024C53.4148 50.5067 50.7277 47.995 42.801 42.7226Z" fill="black"/>
<path d="M28.49 66.0512C22.4318 56.2601 15.2469 47.738 13.8382 48.7567C11.4042 50.5041 12.8473 54.559 19.0768 62.7372C22.4228 67.3468 26.0509 72.2068 27.0775 73.7486C28.1041 75.2904 29.3811 76.5502 30.0466 76.5106C32.8416 76.3445 32.1813 71.976 28.49 66.0512Z" fill="black"/>
</svg>
