<svg width="310" height="184" viewBox="0 0 310 184" fill="none" xmlns="http://www.w3.org/2000/svg">
<g clip-path="url(#clip0_1_972)">
<g filter="url(#filter0_d_1_972)">
<path d="M176.914 75.078L177.237 76.0055C191.919 73.8444 212.817 77.0023 229.94 85.757L230.167 85.3118L229.94 85.757C240.093 90.9482 248.878 98.0696 254.307 107.133C259.728 116.183 261.825 127.202 258.557 140.251L258.556 140.252C258.471 140.594 258.124 140.804 257.781 140.719C257.439 140.632 257.229 140.283 257.315 139.94C260.495 127.239 258.424 116.474 253.077 107.628C247.738 98.7953 239.155 91.9076 229.355 86.8974C219.466 81.8416 208.306 78.6635 197.854 77.3306C187.41 75.9986 177.631 76.5038 170.517 78.8546L170.516 78.8547C170.173 78.9684 169.981 78.8907 169.87 78.8152C169.732 78.7227 169.655 78.5882 169.636 78.549L169.635 78.5484C169.602 78.4811 169.553 78.362 169.555 78.227C169.556 78.1129 169.592 77.9476 169.8 77.7556L169.8 77.7557C169.8 77.7557 169.807 77.7492 169.826 77.7349C169.846 77.72 169.873 77.7008 169.907 77.6769C169.976 77.6292 170.069 77.5689 170.183 77.4965C170.411 77.3521 170.715 77.1672 171.076 76.9527C171.796 76.5239 172.73 75.9832 173.704 75.4233C174.36 75.0465 175.035 74.6606 175.675 74.2948C176.932 73.5767 178.053 72.9359 178.627 72.5933C179.3 72.1926 180.26 71.6924 181.408 71.0964L181.516 71.0403C182.633 70.4605 183.91 69.7976 185.233 69.0652C187.96 67.5563 190.919 65.7344 193.124 63.6984C194.372 62.5483 195.433 61.2943 195.943 59.9494C196.466 58.5703 196.398 57.1184 195.431 55.6616C194.456 54.1904 192.964 53.3673 191.189 52.9925C189.423 52.6197 187.351 52.6831 185.149 52.998L185.149 52.998C179.506 53.8061 172.803 56.4304 167.032 59.3211C161.269 62.2079 156.355 65.401 154.309 67.3899L154.309 67.3902C154.054 67.6377 153.65 67.6313 153.404 67.3789L153.404 67.3788C153.157 67.1253 153.162 66.7206 153.417 66.4723C155.432 64.512 160.435 61.235 166.413 58.2325C172.384 55.2338 179.248 52.5494 184.967 51.7307C190.306 50.9664 194.477 51.9042 196.498 54.9522C197.622 56.647 197.798 58.2952 197.318 59.8886C196.831 61.5074 195.653 63.1093 193.992 64.6403L193.992 64.6405C191.818 66.6467 188.87 68.4809 186.087 70.0329C184.723 70.7942 183.406 71.4833 182.247 72.0898L182.187 72.121C181.02 72.7316 180.006 73.2632 179.285 73.6931C178.822 73.9678 177.941 74.4841 176.914 75.078Z" fill="black" stroke="black"/>
<path d="M258.235 140.243L257.633 138.958C257.372 138.402 257.117 137.848 256.863 137.295C255.995 135.408 255.138 133.547 254.118 131.749L254.118 131.749C250.605 125.551 245.648 119.868 239.644 116.04C239.344 115.85 238.949 115.939 238.758 116.235C238.568 116.535 238.657 116.931 238.954 117.121C244.813 120.852 249.607 126.389 253.003 132.38L253.003 132.38C254.031 134.196 254.905 136.098 255.769 137.979C256.191 138.898 256.611 139.813 257.047 140.711C257.061 140.741 257.097 140.817 257.144 140.918C257.215 141.072 257.313 141.283 257.406 141.475C257.489 141.649 257.574 141.821 257.648 141.961C257.685 142.031 257.718 142.09 257.745 142.136C257.77 142.177 257.783 142.196 257.786 142.2C257.787 142.201 257.787 142.202 257.787 142.201L257.789 142.203C257.931 142.378 258.067 142.437 258.17 142.459C258.284 142.483 258.392 142.469 258.468 142.45L258.474 142.449L258.474 142.449C258.589 142.423 258.725 142.365 258.863 142.224C258.963 142.119 259.182 141.779 259.385 141.18L259.386 141.178C259.721 140.199 260.122 138.485 260.475 136.889C260.582 136.404 260.685 135.926 260.78 135.487C260.99 134.511 261.161 133.72 261.249 133.429C261.249 133.429 261.249 133.429 261.249 133.429L261.728 133.573C264.15 125.53 267.613 118.34 271.202 110.887C271.685 109.883 272.171 108.875 272.656 107.86L258.235 140.243ZM258.235 140.243L258.571 138.864C259.112 136.644 259.863 133.588 260.024 133.06L260.025 133.058C262.478 124.906 265.987 117.617 269.646 110.013C270.113 109.045 270.581 108.071 271.05 107.09C271.204 106.77 271.586 106.636 271.903 106.788C272.22 106.94 272.357 107.324 272.205 107.645L258.235 140.243Z" fill="black" stroke="black"/>
</g>
</g>
<path d="M26.5479 61.4032C25.6713 62.8025 26.9271 66.8123 28.7001 68.2898C30.0602 69.3948 31.0665 68.8881 31.3315 66.9481C31.6359 64.9034 30.1377 62.0008 28.4323 61.2712C27.1328 60.701 26.9764 60.7298 26.5479 61.4032Z" fill="black"/>
<path d="M14.8403 62.3339C13.9636 63.7332 15.2194 67.743 16.9925 69.2205C18.3526 70.3255 19.3589 69.8187 19.6238 67.8788C19.9283 65.834 18.43 62.9314 16.7246 62.2019C15.4252 61.6317 15.2687 61.6604 14.8403 62.3339Z" fill="black"/>
<path d="M9.88193 73.7076C10.2414 75.9227 14.3541 80.0019 18.0101 81.7376C19.1376 82.3005 21.0826 82.7032 22.8021 82.777C25.5025 82.8752 25.8859 82.7852 29.3741 81.1787C32.7215 79.6371 33.2387 79.269 34.844 77.4043C36.889 74.9908 38.8424 69.806 38.2223 68.3602C37.6796 67.0951 36.8918 67.7177 35.3133 70.8253C33.5656 74.2273 32.5918 75.4982 30.558 76.9543C28.6144 78.3255 24.9796 79.3935 22.6935 79.2777C19.9776 79.1434 14.8713 76.3875 12.0947 73.5542C10.6811 72.1276 9.64514 72.1718 9.88193 73.7076Z" fill="black"/>
<g filter="url(#filter1_d_1_972)">
<path d="M61.9476 72.8269L59.1714 66.4129L47.5499 56.9387L51.4622 55.2453L58.8568 61.5247L59.3359 61.3174L59.819 51.6283L63.7312 49.935L62.6845 64.8924L65.4606 71.3064L61.9476 72.8269ZM73.7648 67.7121L65.7013 49.0823L77.6776 43.8986L79.0599 47.0923L70.5967 50.7554L72.5204 55.1999L80.2385 51.8593L81.6208 55.053L73.9027 58.3936L75.8955 62.9978L84.5185 59.2656L85.9008 62.4593L73.7648 67.7121ZM94.012 59.3909C92.0958 60.2203 90.3433 60.3574 88.7547 59.802C87.1838 59.239 85.9914 58.0171 85.1774 56.1364L84.4171 54.3799L87.9301 52.8594L88.6904 54.6159C89.0513 55.4498 89.5661 56.0064 90.2348 56.2858C90.8958 56.5475 91.6432 56.4978 92.4771 56.1369C93.2578 55.799 93.7612 55.3072 93.9874 54.6616C94.2313 54.0083 94.1689 53.2558 93.8003 52.4042L89.5382 42.557L86.3445 43.9393L84.9622 40.7456L93.798 36.9212L95.1803 40.1149L93.0512 41.0364L97.3134 50.8836C98.1504 52.8176 98.2683 54.5256 97.6668 56.0078C97.0578 57.4722 95.8395 58.5999 94.012 59.3909ZM104.745 54.3029L96.6817 35.6731L100.195 34.1525L108.258 52.7824L104.745 54.3029Z" fill="black"/>
</g>
<defs>
<filter id="filter0_d_1_972" x="151.722" y="50.9785" width="121.045" height="95.9929" filterUnits="userSpaceOnUse" color-interpolation-filters="sRGB">
<feFlood flood-opacity="0" result="BackgroundImageFix"/>
<feColorMatrix in="SourceAlpha" type="matrix" values="0 0 0 0 0 0 0 0 0 0 0 0 0 0 0 0 0 0 127 0" result="hardAlpha"/>
<feOffset dx="-1" dy="4"/>
<feComposite in2="hardAlpha" operator="out"/>
<feColorMatrix type="matrix" values="0 0 0 0 0 0 0 0 0 0 0 0 0 0 0 0 0 0 1 0"/>
<feBlend mode="normal" in2="BackgroundImageFix" result="effect1_dropShadow_1_972"/>
<feBlend mode="normal" in="SourceGraphic" in2="effect1_dropShadow_1_972" result="shape"/>
</filter>
<filter id="filter1_d_1_972" x="47.5499" y="34.1526" width="60.8696" height="45.7886" filterUnits="userSpaceOnUse" color-interpolation-filters="sRGB">
<feFlood flood-opacity="0" result="BackgroundImageFix"/>
<feColorMatrix in="SourceAlpha" type="matrix" values="0 0 0 0 0 0 0 0 0 0 0 0 0 0 0 0 0 0 127 0" result="hardAlpha"/>
<feOffset dy="4"/>
<feComposite in2="hardAlpha" operator="out"/>
<feColorMatrix type="matrix" values="0 0 0 0 0.906944 0 0 0 0 0.906944 0 0 0 0 0.906944 0 0 0 0.32 0"/>
<feBlend mode="normal" in2="BackgroundImageFix" result="effect1_dropShadow_1_972"/>
<feBlend mode="normal" in="SourceGraphic" in2="effect1_dropShadow_1_972" result="shape"/>
</filter>
<clipPath id="clip0_1_972">
<rect width="130" height="130" fill="white" transform="translate(213.916) rotate(42.6258)"/>
</clipPath>
</defs>
</svg>
