<svg width="73" height="69" viewBox="0 0 73 69" fill="none" xmlns="http://www.w3.org/2000/svg">
<path d="M38.6181 8.36637C36.8542 11.1818 39.3811 19.2499 42.9486 22.2228C45.6852 24.4461 47.71 23.4265 48.2431 19.5231C48.8556 15.409 45.841 9.56867 42.4096 8.10076C39.795 6.95345 39.4802 7.01133 38.6181 8.36637Z" fill="black"/>
<path d="M15.0588 10.239C13.2949 13.0544 15.8217 21.1225 19.3893 24.0953C22.1259 26.3187 24.1506 25.2991 24.6837 21.3957C25.2962 17.2816 22.2817 11.4413 18.8503 9.97335C16.2356 8.82604 15.9209 8.88392 15.0588 10.239Z" fill="black"/>
<path d="M5.0834 33.1238C5.80659 37.5808 14.0817 45.7884 21.4379 49.2808C23.7065 50.4133 27.62 51.2237 31.0797 51.3722C36.5132 51.5697 37.2846 51.3886 44.3032 48.1562C51.0383 45.0543 52.0791 44.3138 55.309 40.5618C59.4238 35.7056 63.3542 25.2734 62.1064 22.3644C61.0145 19.819 59.4293 21.0716 56.2532 27.3244C52.7369 34.1694 50.7773 36.7266 46.6852 39.6563C42.7746 42.4153 35.461 44.5643 30.8613 44.3312C25.3966 44.061 15.1223 38.516 9.53567 32.8151C6.69129 29.9447 4.60695 30.0337 5.0834 33.1238Z" fill="black"/>
</svg>
