<svg width="161" height="173" viewBox="0 0 161 173" fill="none" xmlns="http://www.w3.org/2000/svg">
<g filter="url(#filter0_d_231_22)">
<rect width="112.826" height="117.442" transform="translate(96.2162) rotate(55.0113)" fill="#BAE6FF"/>
<g filter="url(#filter1_d_231_22)">
<path d="M122.611 40.068C120.988 40.5628 121.019 40.5413 107.315 52.6977C101.763 57.591 97.0657 61.6114 96.909 61.5837C96.7522 61.556 96.3774 58.3376 96.1225 54.4399C95.6003 47.0196 94.8659 42.6331 93.993 41.3205C92.9603 39.845 91.6877 39.7281 89.997 40.9115C88.2141 42.1594 87.0951 43.7669 81.8014 52.6932C77.4607 60.0364 76.3386 61.5087 75.272 61.2935C73.8918 61.0229 71.5343 58.9633 59.9587 47.9213C53.6607 41.933 47.879 36.6825 47.089 36.2736C44.5163 34.8226 43.136 36.842 44.1287 40.6814C44.4237 41.7572 46.4368 46.9891 48.5974 52.3009C54.6029 66.9667 57.6271 76.3914 56.5512 77.1444C56.3052 77.3165 54.2304 77.1658 51.8912 76.8337C43.4842 75.619 37.9666 75.1299 36.986 75.4957C36.2329 75.7938 35.9901 76.1012 35.9255 76.925C35.8516 77.801 36.0238 78.0469 37.201 79.0091C37.9633 79.5748 42.4541 82.0649 47.1724 84.4874C51.8906 86.9098 56.0648 89.2093 56.4582 89.5751C57.6478 90.6203 57.4141 91.3335 55.5328 92.8334C54.5922 93.5834 49.7229 97.3578 44.7 101.24C32.9573 110.375 31.3096 112.078 32.5359 113.83C33.956 115.859 38.1979 115.179 55.0707 110.102C62.2668 107.951 68.4731 106.218 68.8389 106.282C69.3921 106.353 69.4229 106.79 69.0139 108.496C67.9378 112.913 65.9607 124.418 66.0897 125.519C66.4185 128.082 68.0107 128.525 70.0703 126.625C70.6913 126.008 73.9129 122.104 77.2729 117.874C80.6022 113.667 83.3965 110.199 83.501 110.218C83.6055 110.236 84.4569 112.434 85.3697 115.047C87.604 121.315 91.7901 131.025 93.7264 134.25C95.1126 136.623 95.337 136.878 96.2868 136.992C98.4785 137.244 98.7459 136.187 101.04 119.834C101.873 113.892 102.771 108.959 102.999 108.891C103.226 108.823 105.568 109.749 108.157 110.96C114.658 113.967 118.884 115.359 120.636 115.049C122.026 114.809 122.087 114.766 122.272 113.721C122.561 112.236 120.271 108.114 116.592 103.316C115.015 101.259 113.724 99.4148 113.782 99.2366C113.789 99.0491 116.647 99.3382 120.075 99.9162C130.031 101.512 139.056 102.432 141.868 102.066C144.069 101.808 144.964 100.403 143.909 98.8971C143.458 98.2515 136.185 94.2735 125.811 88.9398C121.661 86.8063 118.268 84.9679 118.243 84.8019C118.219 84.6359 121.425 82.346 125.332 79.7488C133.432 74.3086 134.674 73.0729 133.838 71.5513C133.229 70.4201 132.741 70.4416 123.408 71.5692C115.364 72.5738 112.382 72.8288 112.146 72.4907C112.059 72.3677 112.551 71.1074 113.246 69.6136C113.932 68.172 115.481 64.8892 116.714 62.3318C120.529 54.303 124.104 45.8009 124.636 43.5508C125.058 41.9279 125.03 41.1686 124.578 40.5231C124.062 39.7853 123.748 39.73 122.611 40.068ZM121.667 45.7208C120.102 49.7014 115.205 60.5027 112.407 66.1247C110.046 70.7999 109.327 73.0438 109.951 73.9353C110.682 74.9804 114.316 75.0022 121.797 73.979C125.96 73.4474 129.759 72.9866 130.238 73.0173C130.988 73.042 131.001 73.125 130.06 73.8749C129.497 74.3145 125.922 76.8625 122.132 79.5612L115.216 84.4021L115.704 85.2966C116.073 85.9545 119.617 88.008 128.519 92.6778C135.303 96.2192 140.962 99.2658 141.091 99.4502C141.22 99.6347 141.235 99.8529 141.112 99.939C140.528 100.348 126.481 98.7301 119.239 97.4786C114.849 96.7037 111.111 96.2056 110.865 96.3777C109.82 97.1092 110.18 97.8193 115.344 105.197C118.162 109.224 120.384 112.661 120.295 112.86C119.951 113.743 115.303 112.141 108.104 108.661C103.789 106.552 102.273 106.284 101.219 107.526C100.752 108.036 99.9062 112.521 98.6208 121.023C97.6029 128.01 96.6313 133.82 96.4776 133.927C95.7705 134.422 93.6345 129.734 89.0889 117.94C84.7093 106.578 84.6447 106.486 82.6159 107.906C82.0626 108.293 79.923 110.799 77.891 113.457C72.7665 120.204 68.721 124.959 68.4628 124.59C68.1401 124.129 69.0103 118.895 70.5168 112.344C72.0911 105.563 72.1218 104.626 71.0583 104.088C69.8688 103.501 67.8799 103.931 57.0259 107.268C42.2434 111.798 35.4623 113.43 34.8383 112.539C34.4296 111.955 36.9933 109.794 49.5568 100.13C55.0716 95.9042 58.8618 92.7475 59.2031 92.1881C60.5864 89.8459 58.4441 87.6356 51.2944 84.0296C43.6284 80.1438 39.9921 78.1548 40.0475 77.8412C40.0813 77.4969 41.9902 77.6723 49.5826 78.7701C56.1822 79.6926 58.0234 79.6405 58.6014 78.5032C59.8956 75.9027 57.7873 68.7682 50.0976 49.6021C47.0426 42.031 46.0714 39.1384 46.4711 38.8587C46.8092 38.622 46.8737 38.7142 58.4278 49.7255C69.7698 60.5647 71.7032 62.28 73.7472 63.3683C76.8026 64.9853 78.026 63.8542 84.1529 53.5663C88.844 45.6114 90.6885 42.9464 91.5584 42.7497C92.5206 42.4885 93.0799 45.5778 93.7648 55.1284C94.3514 63.557 94.6495 65.2261 95.4702 65.1554C95.6577 65.1616 96.4754 64.4977 97.29 63.6985C100.112 60.9906 120.926 43.3539 122.251 42.564C122.94 42.1736 122.875 42.5394 121.667 45.7208Z" fill="black"/>
</g>
<g filter="url(#filter2_d_231_22)">
<path d="M101.296 73.6734C97.0169 69.9814 89.6306 67.4112 83.8056 67.5953C80.8731 67.7243 76.5081 68.9474 73.5878 70.5334C65.3496 74.9255 63.8765 86.1696 70.5372 93.9192C77.3146 101.77 90.3292 105.119 98.2416 101.046C104.589 97.7482 108.404 90.6354 107.357 83.9036C106.991 81.549 106.684 80.8481 104.947 78.1707C103.675 76.2218 102.347 74.5864 101.296 73.6734ZM104.845 84.2416C105.26 86.9282 104.547 90.8166 103.117 93.4201C102.026 95.3289 101.629 95.7438 98.709 97.7878C95.758 99.8533 95.2631 100.062 93.013 100.446C90.1604 100.886 84.8857 100.089 81.2617 98.6413C68.5515 93.5687 64.4517 79.859 73.6737 73.4044C77.6699 70.6074 84.368 68.9878 88.6529 69.7442C90.9214 70.1716 96.6602 73.0706 98.9932 74.9643C101.486 77.0208 104.455 81.721 104.845 84.2416Z" fill="black"/>
</g>
<path d="M93.9943 84.9664C93.3703 84.533 92.0823 85.5719 92.1744 86.4234C92.3557 87.991 94.532 88.025 94.8088 86.4573C94.9287 85.778 94.7227 85.4183 93.9943 84.9664Z" fill="black"/>
<path d="M82.6119 78.3233C81.5146 78.5876 81.0657 79.4514 81.5544 80.3459C82.0984 81.3849 83.4786 81.1975 83.7861 80.0663C84.0259 79.1657 83.3159 78.1512 82.6119 78.3233Z" fill="black"/>
<path d="M84.6212 91.2058C82.6907 92.8318 82.2173 93.0715 81.2583 93.01C80.2992 92.9485 80.0871 92.7763 79.8597 91.9279C79.6507 90.975 80.0228 89.02 80.7268 87.4739C80.9943 86.8745 80.9297 86.7823 80.3457 86.7331C79.3129 86.6316 77.9479 89.3273 78.0523 91.1778C78.2151 94.224 80.6095 95.6166 83.4007 94.3042C84.7286 93.6496 86.7729 91.5318 87.0926 90.4836C87.4493 89.2264 86.7669 89.4292 84.6212 91.2058Z" fill="black"/>
</g>
<defs>
<filter id="filter0_d_231_22" x="0" y="0" width="160.912" height="172.359" filterUnits="userSpaceOnUse" color-interpolation-filters="sRGB">
<feFlood flood-opacity="0" result="BackgroundImageFix"/>
<feColorMatrix in="SourceAlpha" type="matrix" values="0 0 0 0 0 0 0 0 0 0 0 0 0 0 0 0 0 0 127 0" result="hardAlpha"/>
<feOffset dy="12.5815"/>
<feComposite in2="hardAlpha" operator="out"/>
<feColorMatrix type="matrix" values="0 0 0 0 0 0 0 0 0 0 0 0 0 0 0 0 0 0 0.25 0"/>
<feBlend mode="normal" in2="BackgroundImageFix" result="effect1_dropShadow_231_22"/>
<feBlend mode="normal" in="SourceGraphic" in2="effect1_dropShadow_231_22" result="shape"/>
</filter>
<filter id="filter1_d_231_22" x="32.1948" y="35.8022" width="112.156" height="104.364" filterUnits="userSpaceOnUse" color-interpolation-filters="sRGB">
<feFlood flood-opacity="0" result="BackgroundImageFix"/>
<feColorMatrix in="SourceAlpha" type="matrix" values="0 0 0 0 0 0 0 0 0 0 0 0 0 0 0 0 0 0 127 0" result="hardAlpha"/>
<feOffset dy="3.14537"/>
<feComposite in2="hardAlpha" operator="out"/>
<feColorMatrix type="matrix" values="0 0 0 0 0 0 0 0 0 0 0 0 0 0 0 0 0 0 0.25 0"/>
<feBlend mode="normal" in2="BackgroundImageFix" result="effect1_dropShadow_231_22"/>
<feBlend mode="normal" in="SourceGraphic" in2="effect1_dropShadow_231_22" result="shape"/>
</filter>
<filter id="filter2_d_231_22" x="66.3473" y="67.5861" width="41.1818" height="38.3474" filterUnits="userSpaceOnUse" color-interpolation-filters="sRGB">
<feFlood flood-opacity="0" result="BackgroundImageFix"/>
<feColorMatrix in="SourceAlpha" type="matrix" values="0 0 0 0 0 0 0 0 0 0 0 0 0 0 0 0 0 0 127 0" result="hardAlpha"/>
<feOffset dy="3.14537"/>
<feComposite in2="hardAlpha" operator="out"/>
<feColorMatrix type="matrix" values="0 0 0 0 0 0 0 0 0 0 0 0 0 0 0 0 0 0 0.25 0"/>
<feBlend mode="normal" in2="BackgroundImageFix" result="effect1_dropShadow_231_22"/>
<feBlend mode="normal" in="SourceGraphic" in2="effect1_dropShadow_231_22" result="shape"/>
</filter>
</defs>
</svg>
