<svg width="67" height="67" viewBox="0 0 67 67" fill="none" xmlns="http://www.w3.org/2000/svg">
<path fill-rule="evenodd" clip-rule="evenodd" d="M15.3738 37.2015C15.1197 36.9521 14.8638 36.7027 14.606 36.4552C11.9782 33.9361 9.37074 31.4143 6.92431 28.7129C6.33154 28.0587 5.2186 26.7895 4.10101 26.1362C3.30166 25.6691 2.47436 25.4737 1.71782 25.5705C1.23579 25.6319 0.531391 25.8748 0.17778 26.7988C0.118224 26.9542 0.0475176 27.2212 0.019601 27.5618C-0.0250657 28.1127 0.0186491 29.101 0.0326074 29.2378C0.228024 31.231 0.423434 33.1368 0.781698 35.1087C1.11111 36.9233 1.3363 38.7518 1.69084 40.5636C2.22126 43.2743 2.90431 45.8836 3.9 48.4649C4.26943 49.4234 5.34795 49.9008 6.30642 49.5313C7.26396 49.1619 7.74226 48.0843 7.37283 47.1259C6.45623 44.7483 5.83184 42.3456 5.34423 39.8489C4.99248 38.0539 4.77006 36.2411 4.44343 34.4433C4.23127 33.2736 4.0805 32.1281 3.95208 30.9724L4.16519 31.2115C6.67117 33.978 9.3391 36.5622 12.0303 39.1417C13.0371 40.1076 14.0096 41.1015 15.0322 42.0516C15.1151 42.1725 15.4975 42.7271 15.6855 42.917C15.9981 43.2334 16.3359 43.4101 16.63 43.4976C17.3772 43.7209 18.1356 43.6381 18.7982 42.8006C19.2942 42.1735 19.5798 41.201 19.5584 40.0396C19.5296 38.4437 18.9238 36.3398 18.7954 35.3702C17.9821 29.235 16.6663 23.1241 16.3164 16.9359C16.2587 15.9104 15.3793 15.125 14.3539 15.1827C13.3284 15.2413 12.542 16.1207 12.6007 17.1461C12.9552 23.4274 14.2794 29.6314 15.1048 35.8596C15.1495 36.1909 15.2556 36.6627 15.3738 37.2015Z" fill="black"/>
<path fill-rule="evenodd" clip-rule="evenodd" d="M31.6358 11.7699C29.5253 12.3292 27.4111 12.8168 25.7156 14.2666C23.9419 15.7843 23.0403 17.9888 22.7192 20.4455C22.3098 23.5796 22.8588 27.1352 23.1994 29.6691C23.3762 30.9812 23.4516 32.8098 23.834 34.4299C24.1634 35.8229 24.7245 37.0708 25.5797 37.9446C26.9235 39.3171 28.9855 39.4558 31.1007 38.5997C33.5443 37.6105 35.9778 35.3278 36.6394 33.9971C37.0972 33.0778 36.7222 31.9593 35.8019 31.5024C34.8825 31.0445 33.7649 31.4195 33.3071 32.3389C32.8874 33.1829 31.2543 34.522 29.704 35.1501C29.3578 35.2897 29.0153 35.3939 28.6915 35.42C28.5231 35.4339 28.3547 35.4581 28.2402 35.3418C27.6791 34.7677 27.4818 33.8343 27.319 32.8917C27.091 31.5777 27.0277 30.2051 26.889 29.1722C26.5838 26.9063 26.0441 23.7303 26.4098 20.9275C26.6062 19.4247 27.05 18.0242 28.136 17.0955C29.3959 16.0179 31.0188 15.7843 32.5887 15.3684C33.5816 15.106 34.1743 14.0861 33.911 13.0932C33.6486 12.1003 32.6287 11.5075 31.6358 11.7699Z" fill="black"/>
<path fill-rule="evenodd" clip-rule="evenodd" d="M31.493 21.5768C29.858 22.4674 28.1104 23.383 26.3582 24.012C25.3913 24.3591 24.8879 25.4256 25.2341 26.3924C25.5812 27.3593 26.6476 27.8627 27.6144 27.5156C29.5444 26.8233 31.4734 25.8267 33.2731 24.8468C34.1748 24.3554 34.5089 23.2239 34.0175 22.3222C33.5262 21.4195 32.3956 21.0864 31.493 21.5768Z" fill="black"/>
<path fill-rule="evenodd" clip-rule="evenodd" d="M53.97 22.5647C52.6114 20.9214 51.1755 19.3041 49.6587 17.8264C49.535 17.7063 48.0052 16.4464 47.096 15.9755C46.4828 15.6582 45.9393 15.6005 45.6211 15.6312C44.6952 15.7205 44.1303 16.2221 43.8986 17.0801C43.6771 17.9027 43.5971 18.7597 43.5971 19.6344C42.2208 17.054 40.9618 14.4001 40.1969 11.6056C40.1336 11.3748 40.0824 11.2669 40.074 11.2473C39.8163 10.6778 39.4505 10.4843 39.3203 10.4079C38.68 10.032 38.1031 10.0953 37.6164 10.314C37.5569 10.3401 36.2448 10.9226 36.5584 12.4105C36.5835 12.5306 36.7975 13.3857 36.8599 13.7198C36.9148 14.0101 37.0339 14.2716 37.2004 14.4931C38.4828 18.1762 40.4444 21.6556 42.3269 25.0531C42.7336 25.7873 43.0509 26.5438 43.2602 27.3562C43.3217 27.5935 43.3468 28.1304 43.4008 28.3937C43.4929 28.8395 43.6753 29.1382 43.7916 29.2908C44.3964 30.0855 45.1418 30.1665 45.8295 29.9627C46.1236 29.8761 46.7126 29.6779 47.0708 28.8246C47.8767 26.9076 47.7855 24.7906 47.552 22.6578C47.4831 22.0269 47.3975 21.3959 47.3454 20.7725C49.0009 22.4177 50.5502 24.2323 52.0065 26.0459C52.1666 26.2451 53.7876 28.0578 54.2185 28.3277C55.2961 29.0051 56.1326 28.4961 56.4909 28.1927C57.0371 27.7293 57.4671 26.9337 57.642 25.9203C57.8672 24.6092 57.6894 22.8048 57.6718 22.079C57.5536 17.1935 57.3767 12.0867 56.2796 7.31668C56.0498 6.3154 55.0504 5.69003 54.0491 5.91988C53.0478 6.14973 52.4225 7.1501 52.6524 8.15045C53.6937 12.6804 53.8378 17.5314 53.9504 22.1693C53.9532 22.2763 53.9607 22.4103 53.97 22.5647Z" fill="black"/>
<path fill-rule="evenodd" clip-rule="evenodd" d="M61.4066 6.07908C62.0813 9.34068 62.7569 12.5725 63.1979 15.9262C63.3319 16.9452 64.2671 17.6636 65.2861 17.5296C66.3041 17.3956 67.0225 16.4603 66.8885 15.4414C66.2669 10.7114 65.1912 6.22053 64.2904 1.55472C63.9433 -0.248695 62.2292 0.00351094 62.1241 0.0221221C61.8924 0.0630665 60.6296 0.331994 60.5877 1.81065C60.5849 1.90091 60.6454 2.53923 60.6557 2.78675C60.678 3.35346 60.6668 3.90717 60.6379 4.47481C60.6044 5.12899 60.9125 5.72175 61.4066 6.07908Z" fill="black"/>
<path fill-rule="evenodd" clip-rule="evenodd" d="M66.2234 25.3127C66.4123 24.7376 66.3165 24.0806 65.9108 23.5716C65.2696 22.7686 64.098 22.6373 63.2949 23.2785C62.5533 23.8703 62.4146 24.5915 62.5142 25.4737C62.6296 26.4945 63.5527 27.2296 64.5735 27.1133C65.5069 27.0081 66.2011 26.2265 66.2234 25.3127Z" fill="black"/>
<path fill-rule="evenodd" clip-rule="evenodd" d="M31.0902 61.2135C30.9004 60.8115 30.7478 60.4942 30.7115 60.4263C28.9825 57.1926 27.1065 54.0017 25.0639 50.956C24.4917 50.1027 23.335 49.8747 22.4817 50.447C21.6284 51.0193 21.4004 52.176 21.9727 53.0293C23.9464 55.9717 25.7581 59.0565 27.4294 62.1813C27.5569 62.4196 28.4065 64.5366 29.0132 65.4197C29.5632 66.219 30.2537 66.5047 30.6492 66.5633C31.2773 66.6564 32.26 66.4312 33.0574 65.3666C34.0987 63.9773 35.4489 60.2653 35.6713 59.6493C36.0789 58.5159 36.4242 57.3266 36.7443 56.1699C37.351 53.9757 37.7 51.7423 38.0117 49.4923C38.1531 48.4742 37.4413 47.5344 36.4233 47.3929C35.4062 47.2524 34.4654 47.9643 34.3249 48.9814C34.0355 51.0687 33.72 53.1419 33.157 55.177C32.8611 56.2444 32.5447 57.3434 32.1687 58.3893C32.0552 58.7029 31.6141 59.9982 31.0902 61.2135Z" fill="black"/>
</svg>
