<svg width="62" height="46" viewBox="0 0 62 46" fill="none" xmlns="http://www.w3.org/2000/svg">
<g filter="url(#filter0_d_220_64)">
<path d="M14.9474 38.7053L12.1713 32.2913L0.549802 22.8171L4.46206 21.1238L11.8567 27.4031L12.3358 27.1958L12.8189 17.5067L16.7311 15.8134L15.6843 30.7708L18.4605 37.1848L14.9474 38.7053ZM26.7647 33.5905L18.7012 14.9607L30.6775 9.77699L32.0598 12.9707L23.5966 16.6338L25.5203 21.0784L33.2383 17.7378L34.6207 20.9314L26.9026 24.272L28.8954 28.8763L37.5184 25.144L38.9007 28.3377L26.7647 33.5905ZM47.0119 25.2694C45.0956 26.0987 43.3432 26.2358 41.7546 25.6804C40.1837 25.1174 38.9913 23.8956 38.1772 22.0148L37.417 20.2583L40.93 18.7378L41.6903 20.4943C42.0512 21.3282 42.566 21.8848 43.2347 22.1642C43.8957 22.4259 44.6431 22.3762 45.477 22.0153C46.2577 21.6774 46.7611 21.1856 46.9873 20.54C47.2312 19.8867 47.1688 19.1342 46.8002 18.2826L42.538 8.43541L39.3444 9.81772L37.962 6.62404L46.7979 2.79963L48.1802 5.99332L46.0511 6.91486L50.3132 16.762C51.1503 18.696 51.2681 20.4041 50.6667 21.8862C50.0576 23.3507 48.8393 24.4784 47.0119 25.2694ZM57.7451 20.1813L49.6816 1.5515L53.1946 0.0309555L61.2581 18.6608L57.7451 20.1813Z" fill="black"/>
</g>
<defs>
<filter id="filter0_d_220_64" x="0.549805" y="0.0310059" width="60.8696" height="45.7886" filterUnits="userSpaceOnUse" color-interpolation-filters="sRGB">
<feFlood flood-opacity="0" result="BackgroundImageFix"/>
<feColorMatrix in="SourceAlpha" type="matrix" values="0 0 0 0 0 0 0 0 0 0 0 0 0 0 0 0 0 0 127 0" result="hardAlpha"/>
<feOffset dy="4"/>
<feComposite in2="hardAlpha" operator="out"/>
<feColorMatrix type="matrix" values="0 0 0 0 0.906944 0 0 0 0 0.906944 0 0 0 0 0.906944 0 0 0 0.32 0"/>
<feBlend mode="normal" in2="BackgroundImageFix" result="effect1_dropShadow_220_64"/>
<feBlend mode="normal" in="SourceGraphic" in2="effect1_dropShadow_220_64" result="shape"/>
</filter>
</defs>
</svg>
